
<svg xmlns="http://www.w3.org/2000/svg" width="200" height="131.06" viewBox="0 0 200 131.06">
  <g id="empty" transform="translate(-201.14 -121.99)">
    <g id="Background_Complete" data-name="Background Complete">
      <g id="Group_3705" data-name="Group 3705">
        <path id="Path_3743" data-name="Path 3743" d="M397.67,152.89l-3.13,15.15-2.01-1.96-3.43,2.44-2.61-3.25-5.88,4.27-5.01-8.39-5.6,3.28-2.21-3.06-7.11,4-2.14-4.58,4.98-24.12,26.71,5.51Z" fill="#ebebeb"/>
        <path id="Path_3744" data-name="Path 3744" d="M390.23,142.18l7.44,10.71-9.26-1.91Z" fill="#dbdbdb"/>
        <path id="Path_3745" data-name="Path 3745" d="M393.88,171.07l-4.59,22.22-35.97-7.42,4.56-22.05,2.13,4.58,7.11-4.01,2.22,3.06,5.6-3.27,5.01,8.39,5.87-4.27,2.62,3.25,3.42-2.45Z" fill="#ebebeb"/>
      </g>
      <g id="Group_3706" data-name="Group 3706">
        <path id="Path_3746" data-name="Path 3746" d="M342.4,168.46l-36.66,2.27-2.91-47.05,27.22-1.69,9.99,8.39Z" fill="#ebebeb"/>
        <path id="Path_3747" data-name="Path 3747" d="M330.05,121.99l9.99,8.39-9.44.58Z" fill="#dbdbdb"/>
        <path id="Path_3748" data-name="Path 3748" d="M319.89,153.65l-.14-1.06a9.413,9.413,0,0,1,2.14-7.23c1.72-2.28,2.66-3.93,2.56-5.78-.12-2.09-1.51-3.41-4.09-3.31a7.31,7.31,0,0,0-4.07,1.5l-1.13-2.53a10.763,10.763,0,0,1,5.77-1.97c4.71-.26,7.01,2.53,7.18,5.64.16,2.79-1.29,4.88-3.13,7.33-1.68,2.23-2.24,4.07-2,6.16l.1,1.06-3.2.18Zm-.58,5.79a2.427,2.427,0,0,1,2.31-2.72,2.571,2.571,0,1,1-2.32,2.72Z" fill="#dbdbdb"/>
      </g>
      <g id="Group_3707" data-name="Group 3707">
        <path id="Path_3749" data-name="Path 3749" d="M228.22,145.65l-3.69-1.67-.51,1.13a.978.978,0,0,1-.84.56,4.066,4.066,0,0,0-.6.06.962.962,0,0,1-.93-.39l-.72-1.01-3.29,2.36.72,1.01a.99.99,0,0,1,.07,1.01,5.451,5.451,0,0,0-.25.55.974.974,0,0,1-.8.62l-1.23.12.4,4.03,1.24-.12a.94.94,0,0,1,.9.45c.05.08.11.17.17.25l.18.24a.959.959,0,0,1,.14,1l-.52,1.14,3.69,1.67.51-1.13a.978.978,0,0,1,.84-.56,4.066,4.066,0,0,0,.6-.06.962.962,0,0,1,.93.39l.72,1.01,3.29-2.36-.72-1.01a.99.99,0,0,1-.07-1.01,5.451,5.451,0,0,0,.25-.55.974.974,0,0,1,.8-.62l1.24-.12-.4-4.03-1.24.12a.95.95,0,0,1-.9-.45c-.05-.08-.11-.17-.17-.25l-.18-.24a.962.962,0,0,1-.14-1l.51-1.13Zm-2.09,3.73a4.026,4.026,0,1,0,.01.01Z" fill="#ebebeb"/>
        <path id="Path_3750" data-name="Path 3750" d="M394.87,199.12l-2.46,1.42.43.75a.674.674,0,0,1-.02.71,2.707,2.707,0,0,0-.21.37.666.666,0,0,1-.6.37h-.87v2.84h.87a.7.7,0,0,1,.6.37c.06.13.14.25.21.37a.673.673,0,0,1,.02.71l-.43.75,2.46,1.42.43-.76a.688.688,0,0,1,.63-.33h.42a.672.672,0,0,1,.62.33l.44.76,2.46-1.42-.43-.75a.674.674,0,0,1,.02-.71,2.707,2.707,0,0,0,.21-.37.666.666,0,0,1,.6-.37h.87v-2.84h-.87a.7.7,0,0,1-.6-.37c-.06-.13-.14-.25-.21-.37a.673.673,0,0,1-.02-.71l.43-.75-2.46-1.42-.44.75a.683.683,0,0,1-.62.33h-.42a.688.688,0,0,1-.63-.33Zm1.27,2.71a2.325,2.325,0,1,1-2.33,2.32A2.322,2.322,0,0,1,396.14,201.83Z" fill="#ebebeb"/>
        <path id="Path_3751" data-name="Path 3751" d="M235.68,133.57l-2.25,1.72.53.69a.658.658,0,0,1,.07.7,3.206,3.206,0,0,0-.16.39.691.691,0,0,1-.55.45l-.86.11.37,2.81.86-.11a.673.673,0,0,1,.64.29c.08.12.17.23.26.34a.685.685,0,0,1,.12.7l-.33.8,2.62,1.09.33-.81a.669.669,0,0,1,.58-.41,1.491,1.491,0,0,0,.21-.02,1.518,1.518,0,0,0,.21-.03.648.648,0,0,1,.66.25l.53.69,2.25-1.72-.53-.69a.658.658,0,0,1-.07-.7,3.206,3.206,0,0,0,.16-.39.691.691,0,0,1,.55-.45l.86-.11-.37-2.81-.86.11a.673.673,0,0,1-.64-.29c-.08-.12-.17-.23-.26-.34a.685.685,0,0,1-.12-.7l.33-.8-2.62-1.09-.33.8a.669.669,0,0,1-.58.41,1.491,1.491,0,0,0-.21.02,1.518,1.518,0,0,0-.21.03.648.648,0,0,1-.66-.25l-.53-.69Zm1.61,2.53a2.324,2.324,0,1,1-2.01,2.6A2.314,2.314,0,0,1,237.29,136.1Z" fill="#ebebeb"/>
      </g>
      <g id="Group_3713" data-name="Group 3713">
        <g id="Group_3708" data-name="Group 3708">
          <path id="Path_3752" data-name="Path 3752" d="M218.85,207.31a88.38,88.38,0,0,0-.13-9.49,121.358,121.358,0,0,0-2.97-19.33c-.83-3.58-1.85-7.09-2.91-10.61-.03-.11-.2-.08-.17.03,3.29,12.39,5.99,25.17,5.8,38.04-.05,3.6-.47,7.14-.81,10.72,0,.1.15.13.17.04a53.874,53.874,0,0,0,1.03-9.4Z" fill="#ebebeb"/>
          <path id="Path_3753" data-name="Path 3753" d="M212.66,167.92s-4.98,12.65-3.87,15.62a5.735,5.735,0,0,0,3.42,3.61s-3.05,4.35-.92,8.44,6.86,3.89,7.18,8.52c0,0,.26-19.35-5.81-36.18Z" fill="#ebebeb"/>
          <path id="Path_3754" data-name="Path 3754" d="M217.93,196.11v-.07a116.276,116.276,0,0,0-4.83-25.44c0-.02-.05-.02-.04,0q1.485,5.55,2.62,11.16a5.5,5.5,0,0,0-2.38-1.33c-.02,0-.02.02,0,.03a6.415,6.415,0,0,1,2.46,1.64c.15.73.29,1.47.42,2.2a10.273,10.273,0,0,0-4.2-2.45c-.02,0-.03.03-.01.03a10.154,10.154,0,0,1,4.3,2.89q.57,3.15,1,6.32a6.007,6.007,0,0,0-2.97-1.7c-.03,0-.05.04-.02.05a6.25,6.25,0,0,1,3.01,1.93.031.031,0,0,1,.02.01c.1.74.19,1.49.28,2.23a8.028,8.028,0,0,0-2.08-1.26c-.02,0-.03.02-.01.03a7.443,7.443,0,0,1,2.09,1.38.049.049,0,0,1,.03.01c.08.71.17,1.42.24,2.13a10.088,10.088,0,0,0-4.23-3.02c-.03-.01-.05.04-.02.05a11.086,11.086,0,0,1,4.16,3.2.1.1,0,0,0,.11.03c.11,1.09.2,2.18.28,3.27,0,.01.03.02.02,0-.06-1.12-.14-2.23-.23-3.35Z" fill="#fff"/>
          <path id="Path_3755" data-name="Path 3755" d="M213.93,179.18a6.182,6.182,0,0,0-2.99-.93c-.02,0-.03.03,0,.04a11.942,11.942,0,0,1,2.96.97c.04.02.07-.05.04-.07Z" fill="#fff"/>
          <path id="Path_3756" data-name="Path 3756" d="M214.53,192.57a6.329,6.329,0,0,0-2.25-.77.02.02,0,1,0,0,.04,8.257,8.257,0,0,1,2.22.78c.03.02.06-.04.03-.05Z" fill="#fff"/>
        </g>
        <g id="Group_3709" data-name="Group 3709">
          <path id="Path_3757" data-name="Path 3757" d="M231.95,183.74a34.2,34.2,0,0,0-5.77,5.04,20.59,20.59,0,0,0-4.04,6.86,50.994,50.994,0,0,0-3.01,16.41,39.757,39.757,0,0,0,.89,9.23.086.086,0,0,0,.17-.03,51.94,51.94,0,0,1,.09-16.13c.86-5.23,2.2-10.92,5.53-15.18a41.724,41.724,0,0,1,6.3-6.02c.12-.1-.03-.26-.15-.18Z" fill="#ebebeb"/>
          <path id="Path_3758" data-name="Path 3758" d="M219.86,208.28a31,31,0,0,1,4.2-5.37c2.49-2.49,4.59-4.26,4.92-5.91s-2.5-2.86-2.5-2.86,3.45.62,4.39-.83,1.4-9.83,1.4-9.83-6.28,4.48-9.2,10.76-3.22,14.05-3.22,14.05Z" fill="#ebebeb"/>
          <path id="Path_3759" data-name="Path 3759" d="M230.1,185.62c-2.64,2.59-5.3,5.36-6.85,8.76a34.937,34.937,0,0,0-1.39,3.61h0c-.08.25-.16.5-.24.74,0,.01-.01.03-.01.04a70.521,70.521,0,0,0-1.78,7.75c0,.02.02.03.03,0,.27-1.31.57-2.63.9-3.95h.04a5.8,5.8,0,0,1,1.65-.42c.04,0,.03-.07,0-.07a6.015,6.015,0,0,0-1.63.3c.3-1.19.63-2.37,1.01-3.54a17.329,17.329,0,0,1,3.72-.49c.01,0,.01-.02,0-.02a14.017,14.017,0,0,0-3.66.31c.06-.2.13-.4.2-.6a18.885,18.885,0,0,1,2.48-.42c.02,0,.01-.03,0-.03a12.412,12.412,0,0,0-2.43.29c.34-1.01.71-2.01,1.12-2.98a19.166,19.166,0,0,1,1.18-2.3,15.107,15.107,0,0,1,2.01-.36.015.015,0,1,0,0-.03,5.221,5.221,0,0,0-1.88.19c.33-.53.68-1.06,1.05-1.56h0a10.639,10.639,0,0,1,4.27-.33c.02,0,.03-.04,0-.04a8.976,8.976,0,0,0-4.09.12c.15-.2.3-.39.45-.59a8.975,8.975,0,0,1,2.63-.41.015.015,0,1,0,0-.03,6.747,6.747,0,0,0-2.45.22c1.16-1.45,2.45-2.8,3.72-4.15.06-.06.01-.1-.05-.04Z" fill="#fff"/>
          <path id="Path_3760" data-name="Path 3760" d="M230.03,191.34a5.792,5.792,0,0,0-1.25-.04c-.05,0-.05.09,0,.09.41.01.83-.02,1.24,0,.03,0,.04-.05,0-.05Z" fill="#fff"/>
          <path id="Path_3761" data-name="Path 3761" d="M225.52,199.47a5.772,5.772,0,0,0-1.93.39c-.02,0,0,.03,0,.03.64-.15,1.28-.21,1.93-.32.05,0,.05-.09,0-.1Z" fill="#fff"/>
          <path id="Path_3762" data-name="Path 3762" d="M224.16,196.66a4.465,4.465,0,0,0-.82.07.025.025,0,0,0,0,.05,4.466,4.466,0,0,0,.82-.04c.05,0,.04-.08,0-.08Z" fill="#fff"/>
        </g>
        <g id="Group_3710" data-name="Group 3710">
          <path id="Path_3763" data-name="Path 3763" d="M201.46,192.64a27.985,27.985,0,0,1,5.83,2.75,17.391,17.391,0,0,1,4.86,4.62,43.236,43.236,0,0,1,6.23,12.58,33.348,33.348,0,0,1,1.41,7.67.075.075,0,0,1-.15.01,43.583,43.583,0,0,0-3.8-13.03c-1.9-4.04-4.31-8.33-7.98-11a35.269,35.269,0,0,0-6.49-3.42c-.12-.05-.03-.22.08-.18Z" fill="#ebebeb"/>
          <path id="Path_3764" data-name="Path 3764" d="M216.92,209.71a26.023,26.023,0,0,0-4.64-3.38c-2.59-1.44-4.7-2.39-5.34-3.65s1.36-2.89,1.36-2.89-2.65,1.3-3.75.35-3.41-7.63-3.41-7.63,6.11,2.18,9.93,6.58a35.508,35.508,0,0,1,5.85,10.62Z" fill="#ebebeb"/>
          <path id="Path_3765" data-name="Path 3765" d="M216.6,208.33c-3.06-5.74-7.14-10.93-12.73-14.36h0a28.291,28.291,0,0,1,4.09,3.2,6.576,6.576,0,0,0-3.29.69c-.02.01,0,.04.02.03a8.874,8.874,0,0,1,3.38-.57c.02,0,.03,0,.04-.01.2.19.39.38.59.57a11.617,11.617,0,0,0-1.76.23c-.02,0-.01.03,0,.02a8.926,8.926,0,0,1,1.86-.15,38.918,38.918,0,0,1,2.88,3.27,3,3,0,0,0-1.23.09c-.03,0-.02.05,0,.05a6.386,6.386,0,0,1,1.31-.02c.17.21.34.42.5.64a11.6,11.6,0,0,0-3.71.36c-.02,0-.01.03,0,.03a14.761,14.761,0,0,1,3.81-.25c.16.21.3.42.46.63a8.242,8.242,0,0,0-2.21.25c-.03,0-.02.05,0,.04a8.79,8.79,0,0,1,2.29-.18c.66.91,1.29,1.83,1.89,2.77a1.994,1.994,0,0,0-.97.06c-.02,0-.01.03,0,.03a4.093,4.093,0,0,1,1.05.05c.54.85,1.07,1.7,1.58,2.57.04.07.16.02.12-.06Z" fill="#fff"/>
          <path id="Path_3766" data-name="Path 3766" d="M211.84,203.57a4.666,4.666,0,0,0-1.78.22c-.02,0-.01.03,0,.03a13.105,13.105,0,0,1,1.77-.18c.04,0,.05-.06,0-.06Z" fill="#fff"/>
          <path id="Path_3767" data-name="Path 3767" d="M206.51,196.57a2.832,2.832,0,0,0-.82.05c-.03,0-.02.05,0,.05.27-.03.53-.02.8-.03a.035.035,0,0,0,0-.07Z" fill="#fff"/>
        </g>
        <g id="Group_3712" data-name="Group 3712">
          <g id="Group_3711" data-name="Group 3711">
            <path id="Path_3768" data-name="Path 3768" d="M224.81,228.69H211l1.97-14.42.51-3.7h8.86l.5,3.7Z" fill="#dbdbdb"/>
            <path id="Path_3769" data-name="Path 3769" d="M222.84,214.27h-9.87l.51-3.7h8.86Z" fill="#c7c7c7"/>
          </g>
          <rect id="Rectangle_1051" data-name="Rectangle 1051" width="11.39" height="3.13" transform="translate(212.21 209.29)" fill="#dbdbdb"/>
        </g>
      </g>
    </g>
    <g id="Floor">
      <path id="Path_3770" data-name="Path 3770" d="M202.23,228.69c63.66-.65,135.08-.66,198.74,0-63.66.66-135.08.65-198.74,0Z" fill="#263238"/>
    </g>
    <g id="Shadow">
      <ellipse id="Ellipse_46" data-name="Ellipse 46" cx="93.72" cy="10.27" rx="93.72" ry="10.27" transform="translate(208.53 232.51)" fill="#ebebeb"/>
    </g>
    <g id="Character">
      <g id="Group_3752" data-name="Group 3752">
        <g id="Group_3729" data-name="Group 3729">
          <g id="Group_3720" data-name="Group 3720">
            <g id="Group_3717" data-name="Group 3717">
              <path id="Path_3771" data-name="Path 3771" d="M280.44,241.08c-.76.26-22.6.33-23.43-.19-.32-.2-.51-3.38-.64-7.23-.03-.83-.05-1.69-.07-2.56l-1.77-11.65,14.6-.09,1.38,11.65-.06,2.56s8.37,3.71,9.23,4.38,1.53,2.86.77,3.12Z" fill="#eb9481"/>
              <path id="Path_3772" data-name="Path 3772" d="M280.44,241.08c-.76.26-22.6.33-23.43-.19-.39-.24-.6-4.88-.71-9.79l14.21-.09-.06,2.56s8.37,3.71,9.23,4.38,1.53,2.86.77,3.12Z" fill="#fff"/>
              <g id="Group_3716" data-name="Group 3716">
                <path id="Path_3773" data-name="Path 3773" d="M280.44,241.08c-.76.26-22.6.33-23.43-.19-.32-.2-.51-3.38-.64-7.23l14.08-.09s8.37,3.71,9.23,4.38,1.53,2.86.77,3.12Z" fill="#a6a6a6"/>
                <g id="Group_3715" data-name="Group 3715">
                  <g id="Group_3714" data-name="Group 3714">
                    <path id="Path_3774" data-name="Path 3774" d="M280.12,240.2c-3.66-.08-18.43-.04-22.06.16-.03,0-.03.02,0,.02,3.63.16,18.4,0,22.06-.12.08,0,.08-.06,0-.06Z" fill="#263238"/>
                    <path id="Path_3775" data-name="Path 3775" d="M278.26,237.17a2.945,2.945,0,0,0-2.19.9,2.862,2.862,0,0,0-.81,1.96c0,.02.04.02.04,0a3.384,3.384,0,0,1,2.95-2.81c.03,0,.03-.04,0-.05Z" fill="#263238"/>
                    <path id="Path_3776" data-name="Path 3776" d="M271.86,233.93a5.093,5.093,0,0,0-4.07,1.71c-.04.05.03.1.07.07a19.944,19.944,0,0,1,4.02-1.6.092.092,0,0,0-.03-.18Z" fill="#263238"/>
                    <path id="Path_3777" data-name="Path 3777" d="M272.99,234.37a5.093,5.093,0,0,0-4.07,1.71c-.04.05.03.1.08.07a19.944,19.944,0,0,1,4.02-1.6.092.092,0,0,0-.03-.18Z" fill="#263238"/>
                    <path id="Path_3778" data-name="Path 3778" d="M274.13,234.8a5.093,5.093,0,0,0-4.07,1.71c-.04.05.03.1.08.07a19.944,19.944,0,0,1,4.02-1.6.092.092,0,0,0-.03-.18Z" fill="#263238"/>
                    <path id="Path_3779" data-name="Path 3779" d="M275.26,235.24a5.093,5.093,0,0,0-4.07,1.71c-.04.05.03.1.08.07a19.944,19.944,0,0,1,4.02-1.6.092.092,0,0,0-.03-.18Z" fill="#263238"/>
                    <path id="Path_3780" data-name="Path 3780" d="M258.98,236.88a1.276,1.276,0,0,0,.02,2.55A1.276,1.276,0,0,0,258.98,236.88Z" fill="#263238"/>
                  </g>
                  <path id="Path_3781" data-name="Path 3781" d="M273.43,230.02c-.74-.61-1.68,0-2.13.63a7.7,7.7,0,0,0-1.32,3.75c0,.03.02.04.05.04.03.1.16.19.26.12a13.049,13.049,0,0,0,3.03-2.39c.46-.6.81-1.57.11-2.15Zm-1.79,3.12c-.5.37-1.02.71-1.51,1.1.26-.73.49-1.47.82-2.17a8.514,8.514,0,0,1,.53-.99c.32-.49,1.75-1.71,1.9-.12.08.88-1.14,1.75-1.74,2.19Z" fill="#263238"/>
                  <path id="Path_3782" data-name="Path 3782" d="M266.34,234.95a12.765,12.765,0,0,0,3.84-.38.181.181,0,0,0,.11-.27c.02-.02.03-.04,0-.06a7.683,7.683,0,0,0-3.55-1.79c-.77-.15-1.86.07-1.97,1.02-.11.91.82,1.36,1.57,1.47Zm-.89-.83c-1-1.25.89-1.36,1.45-1.23a8.3,8.3,0,0,1,1.07.34c.73.28,1.4.65,2.1,1-.62.06-1.23.17-1.85.26-.74.1-2.22.32-2.77-.37Z" fill="#263238"/>
                </g>
              </g>
            </g>
            <g id="Group_3719" data-name="Group 3719">
              <path id="Path_3783" data-name="Path 3783" d="M233.07,165.62s16.95,28.84,17.41,30.86c.7,3.11,4.39,33.84,4.39,33.84l17.64-.32s-3.04-27.09-5.92-36.02c-2.07-6.43-17.04-27.75-17.04-27.75l-16.49-.62Z" fill="#37474f"/>
              <g id="Group_3718" data-name="Group 3718">
                <path id="Path_3784" data-name="Path 3784" d="M270.91,227.3c-2.53-.02-11.51-.12-14.88.2a.025.025,0,0,0,0,.05c1.16.17,12.35-.09,14.88-.17a.035.035,0,1,0,0-.07Z" fill="#263238"/>
                <path id="Path_3785" data-name="Path 3785" d="M235.96,168.26c1.11,1.74,2.28,3.45,3.42,5.18s2.27,3.46,3.39,5.2q3.345,5.22,6.54,10.53a27.242,27.242,0,0,1,4.13,10.68c.35,1.89.57,3.8.79,5.72.23,2.03.45,4.07.68,6.1q.69,6.24,1.39,12.49c.06.51.11,1.02.16,1.53,0,.07-.13.09-.14.01-.52-4.14-.95-8.29-1.42-12.43-.23-2.06-.47-4.12-.7-6.19-.22-1.92-.43-3.84-.72-5.75a37.7,37.7,0,0,0-1.24-5.55,27.275,27.275,0,0,0-2.44-5.4c-2.04-3.53-4.21-6.99-6.37-10.45-2.18-3.49-4.38-6.96-6.67-10.39-.28-.42-.57-.84-.86-1.26-.02-.03.03-.06.05-.03Z" fill="#263238"/>
              </g>
            </g>
          </g>
          <g id="Group_3728" data-name="Group 3728">
            <g id="Group_3724" data-name="Group 3724">
              <path id="Path_3786" data-name="Path 3786" d="M238.63,242.78c-.8-.05-21.57-8.46-22.15-9.26a.281.281,0,0,1-.03-.15c0-.71,1.44-3.21,2.64-6.49.08-.21.61-1.18,1.36-2.5,2.04-3.6,5.66-9.78,5.66-9.78l13.57,5.39-6.5,9.73-1.01,2.35s6.37,6.58,6.91,7.53.35,3.23-.45,3.18Z" fill="#eb9481"/>
              <path id="Path_3787" data-name="Path 3787" d="M238.63,242.78c-.8-.05-21.57-8.46-22.15-9.26a.281.281,0,0,1-.03-.15c0-.71,1.44-3.21,2.64-6.49.08-.21.61-1.18,1.36-2.5l12.74,5.34-1.01,2.35s6.37,6.58,6.91,7.53.35,3.23-.45,3.18Z" fill="#fff"/>
              <g id="Group_3723" data-name="Group 3723">
                <path id="Path_3788" data-name="Path 3788" d="M238.62,242.78c-.8-.05-21.57-8.46-22.15-9.26-.22-.3.71-3.14,2.61-6.64l13.08,5.2s6.37,6.58,6.91,7.52.35,3.23-.46,3.18Z" fill="#a6a6a6"/>
                <g id="Group_3722" data-name="Group 3722">
                  <g id="Group_3721" data-name="Group 3721">
                    <path id="Path_3789" data-name="Path 3789" d="M238.66,241.85c-3.36-1.44-17.07-6.95-20.51-8.13-.03,0-.04,0,0,.02,3.3,1.5,17.05,6.9,20.49,8.16.07.03.09-.03.02-.06Z" fill="#263238"/>
                    <path id="Path_3790" data-name="Path 3790" d="M238.07,238.34a2.91,2.91,0,0,0-2.37.02,2.858,2.858,0,0,0-1.49,1.51c0,.02.03.04.04.02a3.393,3.393,0,0,1,3.79-1.5c.03,0,.04-.03.02-.04Z" fill="#263238"/>
                    <path id="Path_3791" data-name="Path 3791" d="M233.35,232.93a5.087,5.087,0,0,0-4.41.06c-.05.03,0,.1.04.1a20.222,20.222,0,0,1,4.33.02.094.094,0,0,0,.04-.18Z" fill="#263238"/>
                    <path id="Path_3792" data-name="Path 3792" d="M234.24,233.76a5.087,5.087,0,0,0-4.41.06c-.05.03,0,.1.04.1a20.222,20.222,0,0,1,4.33.02.094.094,0,0,0,.04-.18Z" fill="#263238"/>
                    <path id="Path_3793" data-name="Path 3793" d="M235.13,234.59a5.087,5.087,0,0,0-4.41.06c-.05.03,0,.1.04.1a20.222,20.222,0,0,1,4.33.02.094.094,0,0,0,.04-.18Z" fill="#263238"/>
                    <path id="Path_3794" data-name="Path 3794" d="M236.01,235.42a5.087,5.087,0,0,0-4.41.06c-.05.03,0,.1.04.1a20.222,20.222,0,0,1,4.33.02.094.094,0,0,0,.04-.18Z" fill="#263238"/>
                    <path id="Path_3795" data-name="Path 3795" d="M220.31,230.84a1.275,1.275,0,0,0-.94,2.37A1.275,1.275,0,0,0,220.31,230.84Z" fill="#263238"/>
                  </g>
                  <path id="Path_3796" data-name="Path 3796" d="M236.28,229.89c-.46-.85-1.55-.64-2.21-.21a7.715,7.715,0,0,0-2.63,2.98.042.042,0,0,0,.03.06c-.01.11.07.24.2.21a12.873,12.873,0,0,0,3.71-1.08c.65-.38,1.34-1.15.91-1.95Zm-2.83,2.22c-.6.15-1.21.28-1.81.45a23.041,23.041,0,0,1,1.57-1.71,8.409,8.409,0,0,1,.86-.72c.48-.33,2.27-.93,1.81.6-.25.85-1.71,1.19-2.43,1.37Z" fill="#263238"/>
                  <path id="Path_3797" data-name="Path 3797" d="M227.86,231.81a12.522,12.522,0,0,0,3.7,1.09c.13.03.21-.1.2-.21.02,0,.04-.03.03-.06a7.708,7.708,0,0,0-2.62-2.99c-.66-.42-1.75-.64-2.21.21-.44.8.25,1.57.9,1.95Zm-.51-1.1c-.45-1.54,1.34-.93,1.81-.6a8.409,8.409,0,0,1,.86.72,23.041,23.041,0,0,1,1.57,1.71c-.6-.18-1.21-.3-1.81-.46-.72-.19-2.18-.53-2.43-1.38Z" fill="#263238"/>
                </g>
              </g>
            </g>
            <g id="Group_3727" data-name="Group 3727">
              <path id="Path_3798" data-name="Path 3798" d="M234.23,229.17l-15.19-6.13s18.84-27.7,18.98-29.76c.12-1.83-8.15-17.72-8.48-22.35a13.822,13.822,0,0,1,4.7-11.27l15.67,6.66a13.557,13.557,0,0,1-4.26,4.12s8.04,18.37,7.58,24.02c-.46,5.68-19,34.71-19,34.71Z" fill="#37474f"/>
              <g id="Group_3726" data-name="Group 3726">
                <path id="Path_3799" data-name="Path 3799" d="M234.91,226.28c-2.2-.94-1.55-.7-3.76-1.62-1.08-.45-8.18-3.4-9.26-3.65a.03.03,0,0,0-.02.05c.95.58,8.1,3.41,9.19,3.84,2.22.88,1.6.6,3.83,1.45.04.02.07-.05.03-.06Z" fill="#263238"/>
                <g id="Group_3725" data-name="Group 3725">
                  <path id="Path_3800" data-name="Path 3800" d="M248.23,170.11a29.516,29.516,0,0,0-4.77,1.55c-.06.02-.03.11.03.1,1.6-.47,3.23-.9,4.8-1.46C248.41,170.26,248.35,170.09,248.23,170.11Z" fill="#263238"/>
                  <path id="Path_3801" data-name="Path 3801" d="M246.37,169.46a6.463,6.463,0,0,0-.4.84,1.953,1.953,0,0,0-.21.7.051.051,0,0,0,.09.03,2.445,2.445,0,0,0,.39-.66c.13-.26.27-.51.4-.78.08-.17-.18-.3-.28-.13Z" fill="#263238"/>
                  <path id="Path_3802" data-name="Path 3802" d="M246.56,167.99c.1-.24.19-.48.29-.72s.23-.49.31-.75c.01-.04.08-.01.06.03-.1.24-.16.5-.24.75l-.24.75a13.263,13.263,0,0,1-.54,1.36,1.588,1.588,0,0,0,.75-.13,1.336,1.336,0,0,0,.53-.64c.14-.27.27-.55.41-.81a5.388,5.388,0,0,0,.43-.91c.01-.04.08-.01.06.03a10.639,10.639,0,0,1-.84,1.93c-.14.24-.26.49-.53.58a2.237,2.237,0,0,1-.89.06c-.04.01-.08-.01-.07-.06.14-.49.3-.99.49-1.47Z" fill="#263238"/>
                </g>
                <path id="Path_3803" data-name="Path 3803" d="M245.9,171.04c.56,1.18,1.05,2.36,1.57,3.53.51,1.15.99,2.31,1.45,3.48.93,2.36,1.77,4.77,2.51,7.2.36,1.2.7,2.42,1,3.64a27.48,27.48,0,0,1,.73,3.72,9.785,9.785,0,0,1-.31,3.73,22.194,22.194,0,0,1-1.38,3.47c-.34.71-.46.61-.29.25a16.94,16.94,0,0,0,1.6-6.66,19.182,19.182,0,0,0-.58-3.68c-.29-1.23-.61-2.46-.96-3.68-.7-2.4-1.52-4.75-2.37-7.1-.48-1.31-.99-2.62-1.47-3.93s-.99-2.51-1.53-3.95a.032.032,0,1,1,.06-.02Z" fill="#263238"/>
                <path id="Path_3804" data-name="Path 3804" d="M234.36,167.14c.27-.1.65.07.93.11a7.906,7.906,0,0,0,1.08.11,7.66,7.66,0,0,0,1.07-.04,2.247,2.247,0,0,0,1.02-.27,5.031,5.031,0,0,0,1.3-1.38,7.889,7.889,0,0,0,1.02-1.78c.01-.04.07-.01.06.03-.11.36-.2.73-.34,1.09a6.72,6.72,0,0,1-.5.96,4.073,4.073,0,0,1-1.35,1.53,3.934,3.934,0,0,1-2.15.3,8.18,8.18,0,0,1-1.21-.16c-.29-.06-.77-.11-.96-.36a.084.084,0,0,1,.04-.13Z" fill="#263238"/>
                <path id="Path_3805" data-name="Path 3805" d="M223.38,220.14q3.75-5.67,7.35-11.43t7.12-11.62a16.128,16.128,0,0,0,1.56-2.89,5.026,5.026,0,0,0-.19-3.31,57.362,57.362,0,0,0-2.33-5.9c-.88-1.93-1.82-3.83-2.75-5.74a56.249,56.249,0,0,1-2.6-5.77,9.86,9.86,0,0,1-.41-5.83,17.152,17.152,0,0,1,2.75-5.34c.3-.43.61-.86.91-1.29.02-.03.07,0,.05.04a22.861,22.861,0,0,0-3.24,5.52,9.615,9.615,0,0,0-.63,3.09,10.275,10.275,0,0,0,.49,3.16,40.464,40.464,0,0,0,2.49,5.74c.92,1.91,1.87,3.81,2.76,5.73a58.331,58.331,0,0,1,2.42,5.92,8.256,8.256,0,0,1,.63,2.8,6.1,6.1,0,0,1-1.05,2.9c-2.27,3.87-4.63,7.7-7.02,11.51s-4.84,7.61-7.32,11.37c-.31.47-.63.95-.94,1.42-.04.06-.12-.01-.09-.07Z" fill="#263238"/>
              </g>
            </g>
          </g>
        </g>
        <g id="Group_3751" data-name="Group 3751">
          <g id="Group_3732" data-name="Group 3732">
            <path id="Path_3806" data-name="Path 3806" d="M250.78,148.71c1.41,3.11,8.56,7.38,11.91,7.84a70.306,70.306,0,0,0,12.23.06c2.94-.45.69-8.38-1.04-8.17-4.77.56-8.82,1.18-10.1,1.18-1.56,0-9.97-2.7-10.99-3.08-2.48-.93-2.81.41-2.01,2.17Z" fill="#eb9481"/>
            <g id="Group_3730" data-name="Group 3730">
              <path id="Path_3807" data-name="Path 3807" d="M250.83,149.53c1.79,2.65,7.74,6.98,7.74,6.98l.83-1.83,2.73-6.05s-5.47-1.73-9.07-2.49a7.624,7.624,0,0,0-1.29-.18c-2.3-.12-2.5,1.3-.95,3.58Z" fill="#ffc727"/>
              <path id="Path_3808" data-name="Path 3808" d="M250.83,149.53c1.79,2.65,7.74,6.98,7.74,6.98l.83-1.83c-2.22-2.58-5.65-6.48-7.62-8.73C249.48,145.83,249.28,147.25,250.83,149.53Z" fill="#263238"/>
              <path id="Path_3809" data-name="Path 3809" d="M257.5,155.29c.45-1.11,2.47-5.6,2.98-6.54.03-.07.08-.06.06.01a66.574,66.574,0,0,1-2.99,6.54c-.01.03-.06.01-.04-.02Z" fill="#263238"/>
            </g>
            <g id="Group_3731" data-name="Group 3731">
              <path id="Path_3810" data-name="Path 3810" d="M273,148.53c2.9-.38,6.5-1.03,9.54.26a1.584,1.584,0,0,1,.81.7c1.37.55,1.52,1.37,1.52,1.37a2.723,2.723,0,0,1,1.16,1.76s1.61.67,1.36,1.71c-.27,1.16-2.47,0-4.07.1a81.9,81.9,0,0,0-9.89,1.75l-.44-7.64Z" fill="#eb9481"/>
              <path id="Path_3811" data-name="Path 3811" d="M279.3,151.95a23.205,23.205,0,0,1,3.23-.02,24.236,24.236,0,0,1,3.47.7c.04,0,.05-.04.02-.05a12.5,12.5,0,0,0-6.71-.68c-.05,0-.05.05,0,.05Z" fill="#263238"/>
              <path id="Path_3812" data-name="Path 3812" d="M278.84,149.75a17.353,17.353,0,0,1,6.02,1.13c.01,0,.02-.01,0-.02a11.215,11.215,0,0,0-6.02-1.17c-.07,0-.07.05,0,.05Z" fill="#263238"/>
              <path id="Path_3813" data-name="Path 3813" d="M278.62,148.57a17.682,17.682,0,0,1,4.72.92c.01,0,.02-.01,0-.02a10.449,10.449,0,0,0-4.73-.96c-.07,0-.06.06,0,.06Z" fill="#263238"/>
              <path id="Path_3814" data-name="Path 3814" d="M278.91,154.97c-.47.22-.35.47.54.67s4.6.27,4.47,1.56-5.36,1.13-6.82.67a23.871,23.871,0,0,1-3.66-1.71c1.02-.17,3.47-.83,5.48-1.19Z" fill="#eb9481"/>
            </g>
          </g>
          <g id="Group_3735" data-name="Group 3735">
            <path id="Path_3815" data-name="Path 3815" d="M254.67,153.66a16.093,16.093,0,0,1-.16,1.69c0-.02.02-.04.02-.06.11-.29.21-.6.35-.88,0-.01.03-.01.03,0a5.64,5.64,0,0,1-.28.91c-.06.14-.11.28-.17.42-.04.25-.09.5-.14.75-.1.47-.54,2.46-.64,2.79a.051.051,0,1,1-.1-.02c.02-.37.39-2.44.47-2.91a24.948,24.948,0,0,1,.58-2.7c0-.02.04-.01.04,0Z" fill="#263238"/>
            <g id="Group_3734" data-name="Group 3734">
              <path id="Path_3816" data-name="Path 3816" d="M251.26,168.52c-.87.45-2,1.15-7.06.15a8.256,8.256,0,0,1-.95-.24c-4.75-1.43-10.45-7.01-10.77-7.41,0,0,7.54-12.23,17.2-16.08,1.19-.48,3.17.44,4.26,1.58a10.952,10.952,0,0,1,.91,5.84c-.33,2.43-2.71,15.71-3.59,16.15Z" fill="#ffc727"/>
              <g id="Group_3733" data-name="Group 3733">
                <path id="Path_3817" data-name="Path 3817" d="M250.59,152.25a1.271,1.271,0,0,1-.21,1.52,1.286,1.286,0,0,1,.21-1.52Z" fill="#fff"/>
                <path id="Path_3818" data-name="Path 3818" d="M247.3,160.58a1.271,1.271,0,0,1-.21,1.52,1.286,1.286,0,0,1,.21-1.52Z" fill="#fff"/>
                <path id="Path_3819" data-name="Path 3819" d="M241.7,154.29a1.271,1.271,0,0,1-.21,1.52,1.286,1.286,0,0,1,.21-1.52Z" fill="#fff"/>
                <path id="Path_3820" data-name="Path 3820" d="M252.74,160.16a1.271,1.271,0,0,1-.21,1.52,1.286,1.286,0,0,1,.21-1.52Z" fill="#fff"/>
                <path id="Path_3821" data-name="Path 3821" d="M245.56,153.21a1.271,1.271,0,0,1,1.52.21,1.286,1.286,0,0,1-1.52-.21Z" fill="#fff"/>
                <path id="Path_3822" data-name="Path 3822" d="M239.21,159.23a1.271,1.271,0,0,1,1.52.21,1.286,1.286,0,0,1-1.52-.21Z" fill="#fff"/>
                <path id="Path_3823" data-name="Path 3823" d="M246.68,165.74a1.271,1.271,0,0,1,1.52.21,1.286,1.286,0,0,1-1.52-.21Z" fill="#fff"/>
                <path id="Path_3824" data-name="Path 3824" d="M237.26,163.37a1.271,1.271,0,0,1,1.52.21,1.286,1.286,0,0,1-1.52-.21Z" fill="#fff"/>
                <path id="Path_3825" data-name="Path 3825" d="M250.54,146.4a1.271,1.271,0,0,1,1.52.21,1.286,1.286,0,0,1-1.52-.21Z" fill="#fff"/>
                <path id="Path_3826" data-name="Path 3826" d="M248.69,148.48a1.284,1.284,0,0,1-1.23.93,1.3,1.3,0,0,1,1.23-.93Z" fill="#fff"/>
                <path id="Path_3827" data-name="Path 3827" d="M238.63,154.41a1.284,1.284,0,0,1-1.23.93,1.3,1.3,0,0,1,1.23-.93Z" fill="#fff"/>
                <path id="Path_3828" data-name="Path 3828" d="M251.19,157.08a1.284,1.284,0,0,1-1.23.93,1.3,1.3,0,0,1,1.23-.93Z" fill="#fff"/>
                <path id="Path_3829" data-name="Path 3829" d="M243.06,162.21a1.284,1.284,0,0,1-1.23.93,1.3,1.3,0,0,1,1.23-.93Z" fill="#fff"/>
                <path id="Path_3830" data-name="Path 3830" d="M254.31,150.08a1.284,1.284,0,0,1-1.23.93,1.3,1.3,0,0,1,1.23-.93Z" fill="#fff"/>
                <path id="Path_3831" data-name="Path 3831" d="M254.14,156.02a1.284,1.284,0,0,1-.93-1.23,1.284,1.284,0,0,1,.93,1.23Z" fill="#fff"/>
                <path id="Path_3832" data-name="Path 3832" d="M236,160.11a1.284,1.284,0,0,1-.93-1.23,1.284,1.284,0,0,1,.93,1.23Z" fill="#fff"/>
                <path id="Path_3833" data-name="Path 3833" d="M251.94,164.98a1.284,1.284,0,0,1-.93-1.23,1.284,1.284,0,0,1,.93,1.23Z" fill="#fff"/>
                <path id="Path_3834" data-name="Path 3834" d="M243.95,151.1a1.284,1.284,0,0,1-.93-1.23,1.284,1.284,0,0,1,.93,1.23Z" fill="#fff"/>
                <path id="Path_3835" data-name="Path 3835" d="M244.09,167.75a1.284,1.284,0,0,1-.93-1.23,1.284,1.284,0,0,1,.93,1.23Z" fill="#fff"/>
                <path id="Path_3836" data-name="Path 3836" d="M245.45,157.93a1.284,1.284,0,0,1-.93-1.23,1.284,1.284,0,0,1,.93,1.23Z" fill="#fff"/>
              </g>
            </g>
          </g>
          <g id="Group_3744" data-name="Group 3744">
            <g id="Group_3736" data-name="Group 3736">
              <path id="Path_3837" data-name="Path 3837" d="M252.16,149.78c-1.23-.23-2.39-2.77-2.53-4.49,0-.12.58-1.05,1.23-2.22.4-.71.82-1.51,1.16-2.27.07-.16.47.36.47.36l.88.67,2.89,2.22a12.927,12.927,0,0,0-1.74,2.71,1.385,1.385,0,0,0-.1.33.065.065,0,0,1-.02.05c-.16.63-1.04,2.85-2.23,2.63Z" fill="#eb9481"/>
              <path id="Path_3838" data-name="Path 3838" d="M254.4,147.09a.078.078,0,0,1-.02.05,3.147,3.147,0,0,1-.5-.19c-3.17-1.48-1.77-5.73-1.77-5.73l1.24.61,2.89,2.22a12.927,12.927,0,0,0-1.74,2.71,1.385,1.385,0,0,0-.1.33Z" fill="#263238"/>
            </g>
            <g id="Group_3743" data-name="Group 3743">
              <path id="Path_3839" data-name="Path 3839" d="M259.57,135.02a3.314,3.314,0,0,1,1.46,2.55,6.752,6.752,0,0,1-.79,3.29c-.15.06-.66-5.84-.66-5.84Z" fill="#263238"/>
              <path id="Path_3840" data-name="Path 3840" d="M252.39,135.87c-.87,1.72-.83,7.13.26,8.52,1.58,2.02,4.61,2.72,6.44.72,1.78-1.94,1.59-8.98.34-10.3A4.6,4.6,0,0,0,252.39,135.87Z" fill="#eb9481"/>
              <path id="Path_3841" data-name="Path 3841" d="M252.53,144.31h0" fill="none" stroke="#f5a79e" stroke-linecap="round" stroke-linejoin="round"/>
              <g id="Group_3740" data-name="Group 3740">
                <g id="Group_3737" data-name="Group 3737">
                  <path id="Path_3842" data-name="Path 3842" d="M257.01,140.2s-.03.02-.03.03c.02.37-.02.79-.35.92-.01,0,0,.02,0,.02.41-.07.45-.63.37-.98Z" fill="#263238"/>
                  <path id="Path_3843" data-name="Path 3843" d="M256.67,139.82c-.59-.03-.61,1.16-.06,1.19S257.17,139.85,256.67,139.82Z" fill="#263238"/>
                </g>
                <g id="Group_3738" data-name="Group 3738">
                  <path id="Path_3844" data-name="Path 3844" d="M259.02,140.18s.03.02.03.03c-.02.37.02.79.36.92.01,0,0,.02,0,.02-.41-.06-.46-.63-.38-.97Z" fill="#263238"/>
                  <path id="Path_3845" data-name="Path 3845" d="M259.36,139.8c.59-.04.62,1.15.07,1.19S258.86,139.83,259.36,139.8Z" fill="#263238"/>
                </g>
                <path id="Path_3846" data-name="Path 3846" d="M256.3,138.91c.16-.04.31-.1.46-.15a.754.754,0,0,0,.44-.25.259.259,0,0,0-.04-.31.618.618,0,0,0-.63-.07.911.911,0,0,0-.53.39.266.266,0,0,0,.29.39Z" fill="#263238"/>
                <path id="Path_3847" data-name="Path 3847" d="M259.77,139.44a4.115,4.115,0,0,1-.47-.13.742.742,0,0,1-.45-.22.256.256,0,0,1,.02-.31.629.629,0,0,1,.62-.11.87.87,0,0,1,.55.36.268.268,0,0,1-.27.41Z" fill="#263238"/>
                <path id="Path_3848" data-name="Path 3848" d="M256.17,143.69c.09.09.17.21.31.22a.934.934,0,0,0,.4-.09c.01,0,.02,0,.02.02a.48.48,0,0,1-.47.19.373.373,0,0,1-.28-.33c0-.02.02-.03.04-.02Z" fill="#263238"/>
                <path id="Path_3849" data-name="Path 3849" d="M258.31,142.11a7.7,7.7,0,0,1-.01.81,5.169,5.169,0,0,0-1.5.05c-.12.03-.11-.07.03-.13a2.248,2.248,0,0,1,1.28-.17c.03-.07-.04-.85,0-.85a2.052,2.052,0,0,1,.57.2c0-1.15-.18-2.29-.17-3.44a.035.035,0,0,1,.07,0,18.433,18.433,0,0,1,.34,3.69c0,.15-.5-.1-.6-.16Z" fill="#263238"/>
                <g id="Group_3739" data-name="Group 3739">
                  <path id="Path_3850" data-name="Path 3850" d="M257.57,142.73s-.26.65-.69.82c-.49.2-.66-.25-.16-.64a1.583,1.583,0,0,1,.85-.18Z" fill="#263238"/>
                  <path id="Path_3851" data-name="Path 3851" d="M257.06,143.45a.754.754,0,0,1-.17.1c-.45.18-.63-.18-.27-.55.25.02.52.11.44.44Z" fill="#ff99ba"/>
                </g>
              </g>
              <g id="Group_3741" data-name="Group 3741">
                <path id="Path_3852" data-name="Path 3852" d="M252.14,140.49c.6.18,1.29-1.61,1.48-2.3.17-.61.37-2.54.4-2.67s2.61,1.71,4.11,1.27a3.593,3.593,0,0,0,2.53-2.42c.02-.63-1.85-2.23-3.47-2.31s-3.81,1.97-3.81,1.97a8.279,8.279,0,0,0,.72-.96,1.752,1.752,0,0,0-1.26,1.09s.21-.93.13-.95-.89.78-.71,1.39a3.194,3.194,0,0,0-1.03,1.71c-.09.89.2,3.98.91,4.2Z" fill="#263238"/>
                <path id="Path_3853" data-name="Path 3853" d="M259.2,136.47a5.25,5.25,0,0,1-1.42.51,3.461,3.461,0,0,1-1.62-.26,5.22,5.22,0,0,1-1.42-.84c-.38-.31-.71-.68-1.11-.96-.1-.07-.22.08-.16.17a5.384,5.384,0,0,0,2.73,2.01,3.107,3.107,0,0,0,3.01-.61v-.01Z" fill="#263238"/>
              </g>
              <g id="Group_3742" data-name="Group 3742">
                <path id="Path_3854" data-name="Path 3854" d="M252.77,140.33s-.93-1.88-1.76-1.58-.32,2.91.53,3.38a.93.93,0,0,0,1.31-.31l-.08-1.5Z" fill="#eb9481"/>
                <path id="Path_3855" data-name="Path 3855" d="M251.17,139.5s-.02.02,0,.02a2.34,2.34,0,0,1,.98,1.64.522.522,0,0,0-.74-.26c-.02,0,0,.04.01.04a.564.564,0,0,1,.59.29,2.87,2.87,0,0,1,.22.55c.02.06.13.05.12-.02v-.02a2.059,2.059,0,0,0-1.17-2.25Z" fill="#263238"/>
              </g>
            </g>
          </g>
          <g id="Group_3750" data-name="Group 3750">
            <g id="Group_3747" data-name="Group 3747">
              <path id="Path_3856" data-name="Path 3856" d="M246.64,148.74c-.64,3.7,3.36,16.18,5.93,18.51,3.83,3.47,10.9,5.74,13.47,6.49,1.12.32,4.21-7.54,3.08-8.06-2.42-1.11-9.95-3.46-10.65-4.06a77.14,77.14,0,0,1-6.95-10.41c-2.58-4.81-4.55-4.34-4.87-2.47Z" fill="#eb9481"/>
              <g id="Group_3746" data-name="Group 3746">
                <path id="Path_3857" data-name="Path 3857" d="M267.21,164.98s3.34.85,5.49,1.51a13.767,13.767,0,0,1,3.97,1.86c1.14,1.01,5.25,5.95,4.07,6.98-1.07.93-4.06-3.77-4.06-3.77s3.44,4.47,1.95,5.35-4.16-4.88-4.16-4.88,3.43,4.67,1.75,5.34c-1.27.5-3.99-4.58-3.99-4.58s2.92,4.04,1.64,4.61c-1.42.63-4.22-3.9-4.22-3.9a7.945,7.945,0,0,1-6.91-.98c-.33-.21,4.46-7.54,4.46-7.54Z" fill="#eb9481"/>
                <g id="Group_3745" data-name="Group 3745">
                  <path id="Path_3858" data-name="Path 3858" d="M275.6,169.93c.42.51.85,1.02,1.23,1.57s.73,1.11,1.06,1.69a10.937,10.937,0,0,1,1.04,2.37,23.9,23.9,0,0,0-2.26-3.96c-.38-.55-.72-1.11-1.1-1.66,0-.01.01-.03.02-.01Z" fill="#263238"/>
                  <path id="Path_3859" data-name="Path 3859" d="M273.6,171.25a13.872,13.872,0,0,1,2.83,4.15c.02.06,0,.06-.04,0-.46-.71-2.31-3.45-2.81-4.14,0-.01,0-.02.02-.01Z" fill="#263238"/>
                  <path id="Path_3860" data-name="Path 3860" d="M271.68,172.08a10.181,10.181,0,0,1,2.1,3.28c.03.06-.02.05-.06,0-.68-1.1-1.2-1.97-2.08-3.24-.01-.02.02-.05.03-.03Z" fill="#263238"/>
                </g>
              </g>
            </g>
            <g id="Group_3749" data-name="Group 3749">
              <path id="Path_3861" data-name="Path 3861" d="M250.28,149.01c-2.98-4.22-4.77-2.66-4.17,1.93a73.941,73.941,0,0,0,2.06,9.39l7.53-3.65S252.19,151.71,250.28,149.01Z" fill="#ffc727"/>
              <g id="Group_3748" data-name="Group 3748">
                <path id="Path_3862" data-name="Path 3862" d="M252.1,150.67a1.292,1.292,0,0,1,.26,1.52,1.292,1.292,0,0,1-.26-1.52Z" fill="#fff"/>
                <path id="Path_3863" data-name="Path 3863" d="M247.64,153.23a1.292,1.292,0,0,1,1.52-.26,1.292,1.292,0,0,1-1.52.26Z" fill="#fff"/>
                <path id="Path_3864" data-name="Path 3864" d="M247.84,146.67a1.29,1.29,0,0,1-.89,1.26,1.29,1.29,0,0,1,.89-1.26Z" fill="#fff"/>
                <path id="Path_3865" data-name="Path 3865" d="M254.19,155.21a1.29,1.29,0,0,1-.89,1.26,1.29,1.29,0,0,1,.89-1.26Z" fill="#fff"/>
                <path id="Path_3866" data-name="Path 3866" d="M248.98,157.77a1.29,1.29,0,0,1-1.26-.89,1.29,1.29,0,0,1,1.26.89Z" fill="#fff"/>
              </g>
              <path id="Path_3867" data-name="Path 3867" d="M251.28,150.28c.4.55.82,1.09,1.23,1.63-.1-.27-.2-.55-.28-.83,0-.01.02-.02.02,0,.08.22.18.43.26.65.04.1.08.21.12.31,0,.02.02.04.03.07.32.42.64.85.95,1.28.37.51.73,1.04,1.09,1.56.37.54.72,1.17,1.11,1.7.03.05-.67.33-.73.36s-.11-.03-.04-.05.62-.36.63-.37c-.36-.53-.77-1.01-1.15-1.53s-.75-1.02-1.11-1.55c-.74-1.06-1.41-2.16-2.14-3.22,0-.01.01-.03.02-.01Z" fill="#263238"/>
              <path id="Path_3868" data-name="Path 3868" d="M246.29,153.97c.11.22.24.44.34.67.04.09.08.19.13.28-.17-.82-.34-1.63-.51-2.45,0,0,.01-.01.01,0,.35,1.32.69,2.64,1.01,3.97a39.312,39.312,0,0,1,.85,3.84,4.565,4.565,0,0,1,.71-.24,3.313,3.313,0,0,1-.78.38,38.883,38.883,0,0,1-.98-4c-.08-.37-.16-.73-.24-1.1-.08-.22-.19-.43-.29-.65s-.19-.46-.28-.7c0-.01.02-.02.02-.01Z" fill="#263238"/>
              <path id="Path_3869" data-name="Path 3869" d="M248.29,159.06c1.05-.59,5.42-2.85,6.4-3.28.07-.03.1,0,.04.04a63.892,63.892,0,0,1-6.41,3.27c-.03.01-.05-.02-.03-.04Z" fill="#263238"/>
            </g>
          </g>
        </g>
      </g>
    </g>
    <g id="Folder">
      <g id="Group_3758" data-name="Group 3758">
        <g id="Group_3755" data-name="Group 3755">
          <g id="Group_3753" data-name="Group 3753">
            <path id="Path_3870" data-name="Path 3870" d="M368.05,244.99H268.47l14.4-81.66h99.58Z" fill="#ffc727"/>
            <path id="Path_3871" data-name="Path 3871" d="M316.95,154.87H284.36l-1.49,8.46h34.88Z" fill="#ffc727"/>
          </g>
          <g id="Group_3754" data-name="Group 3754" opacity="0.1">
            <path id="Path_3872" data-name="Path 3872" d="M368.05,244.99H268.47l14.4-81.66h99.58Z"/>
            <path id="Path_3873" data-name="Path 3873" d="M316.95,154.87H284.36l-1.49,8.46h34.88Z"/>
          </g>
        </g>
        <g id="Group_3756" data-name="Group 3756">
          <path id="Path_3874" data-name="Path 3874" d="M280.84,158.32a2.219,2.219,0,0,1,0-2.84,2.219,2.219,0,0,1,0,2.84Z" fill="#263238"/>
          <path id="Path_3875" data-name="Path 3875" d="M277.95,159.16a2.213,2.213,0,0,1-1.42-2.46,2.219,2.219,0,0,1,1.42,2.46Z" fill="#263238"/>
          <path id="Path_3876" data-name="Path 3876" d="M275.86,161.33a2.213,2.213,0,0,1-2.46-1.42,2.224,2.224,0,0,1,2.46,1.42Z" fill="#263238"/>
          <path id="Path_3877" data-name="Path 3877" d="M275.14,164.26a2.219,2.219,0,0,1-2.84,0,2.219,2.219,0,0,1,2.84,0Z" fill="#263238"/>
          <path id="Path_3878" data-name="Path 3878" d="M275.97,167.15a2.213,2.213,0,0,1-2.46,1.42,2.219,2.219,0,0,1,2.46-1.42Z" fill="#263238"/>
          <path id="Path_3879" data-name="Path 3879" d="M278.15,169.24a2.213,2.213,0,0,1-1.42,2.46,2.224,2.224,0,0,1,1.42-2.46Z" fill="#263238"/>
          <path id="Path_3880" data-name="Path 3880" d="M281.07,169.97a2.219,2.219,0,0,1,0,2.84,2.219,2.219,0,0,1,0-2.84Z" fill="#263238"/>
          <path id="Path_3881" data-name="Path 3881" d="M283.97,169.13a2.213,2.213,0,0,1,1.42,2.46,2.219,2.219,0,0,1-1.42-2.46Z" fill="#263238"/>
          <path id="Path_3882" data-name="Path 3882" d="M286.06,166.95a2.213,2.213,0,0,1,2.46,1.42,2.224,2.224,0,0,1-2.46-1.42Z" fill="#263238"/>
          <path id="Path_3883" data-name="Path 3883" d="M286.78,164.03a2.219,2.219,0,0,1,2.84,0,2.219,2.219,0,0,1-2.84,0Z" fill="#263238"/>
          <path id="Path_3884" data-name="Path 3884" d="M285.94,161.13a2.213,2.213,0,0,1,2.46-1.42,2.219,2.219,0,0,1-2.46,1.42Z" fill="#263238"/>
          <path id="Path_3885" data-name="Path 3885" d="M283.77,159.04a2.213,2.213,0,0,1,1.42-2.46,2.224,2.224,0,0,1-1.42,2.46Z" fill="#263238"/>
        </g>
        <path id="Path_3886" data-name="Path 3886" d="M367.9,244.99H268.11l-14.17-78.7h99.79Z" fill="#ffc727"/>
        <g id="Group_3757" data-name="Group 3757">
          <circle id="Ellipse_47" data-name="Ellipse 47" cx="4.15" cy="4.15" r="4.15" transform="translate(284.37 206.1)" fill="#263238"/>
          <circle id="Ellipse_48" data-name="Ellipse 48" cx="4.15" cy="4.15" r="4.15" transform="translate(317.16 206.1)" fill="#263238"/>
          <path id="Path_3887" data-name="Path 3887" d="M310.87,215.06l-.23-.43s-2.16-4-6.47-4a5.136,5.136,0,0,0-4.93,3.89l-.12.48-.95-.23.11-.48s1.17-4.64,5.88-4.64,7.25,4.34,7.34,4.53l.23.43-.87.46Z" fill="#263238"/>
        </g>
      </g>
    </g>
    <g id="Fly">
      <g id="Group_3765" data-name="Group 3765">
        <g id="Group_3759" data-name="Group 3759">
          <path id="Path_3888" data-name="Path 3888" d="M361.28,209.77a18.358,18.358,0,0,0,1.93-.53" fill="none" stroke="#263238" stroke-width="1"/>
          <path id="Path_3889" data-name="Path 3889" d="M366.75,207.57c3.29-2.03,5.7-5.1,6-8.53.87-10.13-11.47-15.73-10.2-27.44,1.22-11.17,12.93-11.97,17.63-10.42,5.19,1.71,3.41,6.69-1.29,6.05-8.14-1.12-13.26-9.97-9.39-20.01,2.25-5.83,7.1-8.84,10.53-10.3" fill="none" stroke="#263238" stroke-width="1" stroke-dasharray="0 0 3.92 3.92"/>
          <path id="Path_3890" data-name="Path 3890" d="M381.86,136.23a15.882,15.882,0,0,1,1.93-.53" fill="none" stroke="#263238" stroke-width="1"/>
        </g>
        <g id="Group_3764" data-name="Group 3764">
          <path id="Path_3891" data-name="Path 3891" d="M388.97,133.9c-.83-2.58-6.42-1.66-5.33,1.72S389.8,136.48,388.97,133.9Z" fill="#263238"/>
          <g id="Group_3761" data-name="Group 3761">
            <path id="Path_3892" data-name="Path 3892" d="M380.6,132.86c.04-1.13,1.62-2,3.85-1.6a12.477,12.477,0,0,1,4.33,1.9,12.435,12.435,0,0,1-4.45,1.59c-2.25.24-3.76-.75-3.72-1.89Z" fill="#ebebeb"/>
            <g id="Group_3760" data-name="Group 3760">
              <path id="Path_3893" data-name="Path 3893" d="M388.78,133.16c-1.16,0-2.31-.03-3.47-.07s-2.31-.1-3.46-.19c1.16,0,2.31.03,3.47.07S387.63,133.07,388.78,133.16Z" fill="#263238"/>
              <path id="Path_3894" data-name="Path 3894" d="M382.84,131.86a10.062,10.062,0,0,1,.96.53,8.978,8.978,0,0,1,.89.63,10.062,10.062,0,0,1-.96-.53A8.978,8.978,0,0,1,382.84,131.86Z" fill="#263238"/>
              <path id="Path_3895" data-name="Path 3895" d="M385.87,133.05a8.768,8.768,0,0,1-.93.67c-.32.2-.65.4-.99.57a8.768,8.768,0,0,1,.93-.67C385.2,133.42,385.53,133.22,385.87,133.05Z" fill="#263238"/>
              <path id="Path_3896" data-name="Path 3896" d="M386.21,132.41a2.389,2.389,0,0,1,.46.29,2,2,0,0,1,.38.39,1.987,1.987,0,0,1-.46-.29A2.338,2.338,0,0,1,386.21,132.41Z" fill="#263238"/>
            </g>
          </g>
          <g id="Group_3763" data-name="Group 3763">
            <path id="Path_3897" data-name="Path 3897" d="M382.73,139.58c.7.89,2.48.68,4.06-.95a12.582,12.582,0,0,0,2.4-4.07,12.572,12.572,0,0,0-4.54,1.32c-1.97,1.12-2.61,2.8-1.91,3.7Z" fill="#ebebeb"/>
            <g id="Group_3762" data-name="Group 3762">
              <path id="Path_3898" data-name="Path 3898" d="M389.18,134.56c-.94.67-1.86,1.38-2.77,2.08-.91.72-1.82,1.43-2.7,2.18.94-.67,1.86-1.38,2.77-2.08C387.39,136.02,388.3,135.31,389.18,134.56Z" fill="#263238"/>
              <path id="Path_3899" data-name="Path 3899" d="M385.13,139.09c.18-.32.32-.65.47-.99a9.6,9.6,0,0,0,.35-1.03c-.18.32-.32.65-.47.99A9.6,9.6,0,0,0,385.13,139.09Z" fill="#263238"/>
              <path id="Path_3900" data-name="Path 3900" d="M386.89,136.35a10.84,10.84,0,0,0-1.14,0,11.02,11.02,0,0,0-1.14.12,10.84,10.84,0,0,0,1.14,0A11.02,11.02,0,0,0,386.89,136.35Z" fill="#263238"/>
              <path id="Path_3901" data-name="Path 3901" d="M387.53,136.67a1.868,1.868,0,0,0,.2-.51,1.959,1.959,0,0,0,.08-.54,1.868,1.868,0,0,0-.2.51A1.959,1.959,0,0,0,387.53,136.67Z" fill="#263238"/>
            </g>
          </g>
          <path id="Path_3902" data-name="Path 3902" d="M388.97,133.9a.977.977,0,1,1,.63-1.23A.976.976,0,0,1,388.97,133.9Z" fill="#455a64"/>
          <path id="Path_3903" data-name="Path 3903" d="M389.57,135.76a.977.977,0,1,1,.63-1.23A.976.976,0,0,1,389.57,135.76Z" fill="#455a64"/>
        </g>
      </g>
    </g>
    <g id="Speech_Bubble" data-name="Speech Bubble">
      <g id="Group_3768" data-name="Group 3768">
        <g id="Group_3766" data-name="Group 3766">
          <path id="Path_3904" data-name="Path 3904" d="M282.42,134.93a8.146,8.146,0,0,1-13.61,5.16l-4.08.6,2.04-3.52a8.148,8.148,0,1,1,15.65-2.23Z" fill="#fff"/>
          <path id="Path_3905" data-name="Path 3905" d="M282.42,134.93a8.209,8.209,0,0,1-1.64,4.13,7.491,7.491,0,0,1-1.6,1.58,7.911,7.911,0,0,1-1.97,1.09,8.325,8.325,0,0,1-2.19.52,8.526,8.526,0,0,1-1.13.02,6.2,6.2,0,0,1-1.13-.12,8.251,8.251,0,0,1-4.03-1.99l.1.03-4.07.63-.3.05.15-.26,2.03-3.53v.14a8.215,8.215,0,0,1,.49-7.26,8.394,8.394,0,0,1,2.55-2.72,8.1,8.1,0,0,1,3.48-1.3,8.347,8.347,0,0,1,3.68.34,8.275,8.275,0,0,1,5.58,8.66Zm0,0a8.078,8.078,0,0,0-5.61-8.54,8.079,8.079,0,0,0-3.62-.27,7.867,7.867,0,0,0-3.36,1.33,8.5,8.5,0,0,0-2.44,2.66,7.909,7.909,0,0,0-1.03,3.45,8.117,8.117,0,0,0,.57,3.55l.03.07-.04.07-2.05,3.52-.15-.22,4.08-.57h.06l.04.03a8.035,8.035,0,0,0,3.9,2.01,6.735,6.735,0,0,0,1.11.13,7.731,7.731,0,0,0,3.29-.48,7.294,7.294,0,0,0,1.96-1.06,7.4,7.4,0,0,0,1.6-1.56,8.2,8.2,0,0,0,1.67-4.11Z" fill="#263238"/>
        </g>
        <g id="Group_3767" data-name="Group 3767">
          <path id="Path_3906" data-name="Path 3906" d="M270.33,137.88a.794.794,0,0,1,.8-.84.841.841,0,1,1-.8.84Zm.34-1.93-.19-6.48h1.3l-.19,6.48h-.92Z" fill="#ffc727"/>
          <path id="Path_3907" data-name="Path 3907" d="M273.44,137.88a.794.794,0,0,1,.8-.84.841.841,0,1,1-.8.84Zm.34-1.93-.19-6.48h1.3l-.19,6.48h-.92Z" fill="#ffc727"/>
          <path id="Path_3908" data-name="Path 3908" d="M276.55,137.88a.794.794,0,0,1,.8-.84.841.841,0,1,1-.8.84Zm.34-1.93-.19-6.48H278l-.19,6.48h-.92Z" fill="#ffc727"/>
        </g>
      </g>
    </g>
  </g>
</svg>
